<svg xmlns="http://www.w3.org/2000/svg" width="80" height="80" viewBox="0 0 80 80">
  <g fill="none" fill-rule="evenodd" transform="translate(4,4)">
    <rect width="72" height="72" fill="#42CE9F" rx="14.4"/>
    <path fill="#FFF" d="M31.6287529,31.4393881 C31.6013929,37.420797 31.5848329,43.2412485 31.6013929,46.7238475 C36.7983529,46.4416307 39.3716329,45.3820545 41.4077929,42.9337693 C42.8513929,41.1978832 43.1638729,39.2093733 42.2883529,37.334905 C41.1435529,34.8830109 37.7746729,32.2947 31.6287529,31.4393881 M28.2109129,53.7561713 L28.2109129,53.7561713 C27.2871529,53.7561713 26.4008329,53.3873406 25.7499529,52.7305188 L25.7485129,52.7290752 C24.7268329,51.6969267 24.7131529,50.7109723 24.6857929,48.9202307 C24.6735529,48.0353257 24.6656329,46.7815901 24.6620329,45.2831703 C24.6562729,42.6558832 24.6627529,39.0101614 24.6814729,34.4463327 C24.7131529,26.5940644 24.7693129,18.7663366 24.7693129,18.7663366 L31.7036329,18.8168614 C31.6913929,20.551304 31.6777129,22.4582525 31.6661929,24.4482059 C39.8713129,25.3959059 46.0345129,28.9629535 48.5681929,34.3864248 C50.5899529,38.7142307 49.9045129,43.5732683 46.7336329,47.385 C41.8448329,53.2646376 34.9033129,53.7561713 28.2109129,53.7561713"/>
  </g>
</svg>
